<svg width="247" height="49" viewBox="0 0 247 49" fill="none" xmlns="http://www.w3.org/2000/svg">
<path d="M59.8611 38V25.7057L61.0355 28.972L49.6954 12.127H56.3013L63.421 23.2102H62.2466L69.3662 12.127H75.7519L64.4485 28.972L65.5862 25.7057V38H59.8611ZM74.8201 25.0451C74.8201 22.3539 75.3217 20.0173 76.3248 18.0356C77.3524 16.0294 78.8203 14.4757 80.7287 13.3748C82.6371 12.2738 84.9002 11.7233 87.5181 11.7233C90.1359 11.7233 92.3991 12.2738 94.3074 13.3748C96.2158 14.4757 97.6838 16.0294 98.7114 18.0356C99.7634 20.0173 100.289 22.3416 100.289 25.0084C100.289 27.7242 99.7634 30.0852 98.7114 32.0914C97.6838 34.0732 96.2158 35.6268 94.3074 36.7522C92.3991 37.8532 90.1359 38.4037 87.5181 38.4037C84.9002 38.4037 82.6371 37.8532 80.7287 36.7522C78.8448 35.6268 77.3891 34.0609 76.3615 32.0547C75.3339 30.0485 74.8201 27.712 74.8201 25.0451ZM80.8021 25.0451C80.8021 27.712 81.3526 29.8038 82.4536 31.3207C83.579 32.8132 85.2672 33.5594 87.5181 33.5594C89.72 33.5594 91.396 32.8132 92.5459 31.3207C93.6958 29.8038 94.2707 27.712 94.2707 25.0451C94.2707 22.3539 93.6958 20.2742 92.5459 18.8063C91.4204 17.3138 89.7445 16.5676 87.5181 16.5676C85.2672 16.5676 83.579 17.3138 82.4536 18.8063C81.3526 20.2742 80.8021 22.3539 80.8021 25.0451ZM115.884 38.4037C112.091 38.4037 109.266 37.4617 107.406 35.5778C105.547 33.6939 104.617 30.8926 104.617 27.1737V12.127H110.342V27.2104C110.342 29.29 110.783 30.8681 111.663 31.9446C112.569 33.0211 113.975 33.5594 115.884 33.5594C117.743 33.5594 119.126 33.0211 120.031 31.9446C120.96 30.8681 121.425 29.29 121.425 27.2104V12.127H127.077V27.1737C127.077 30.8926 126.135 33.6939 124.251 35.5778C122.392 37.4617 119.603 38.4037 115.884 38.4037ZM132.145 38V12.127H143.889C146.8 12.127 149.051 12.8243 150.641 14.2189C152.232 15.589 153.027 17.5096 153.027 19.9806C153.027 21.5954 152.66 22.99 151.926 24.1644C151.216 25.3143 150.189 26.2073 148.843 26.8434C147.522 27.4551 145.932 27.7609 144.072 27.7609L144.513 26.9535H146.017C147.069 26.9535 147.999 27.2349 148.806 27.7976C149.638 28.3603 150.323 29.1799 150.862 30.2564L154.715 38H148.403L144.403 29.6693C144.109 28.9597 143.644 28.4949 143.008 28.2747C142.396 28.03 141.687 27.9077 140.879 27.9077H137.87V38H132.145ZM137.87 23.7974H142.898C144.39 23.7974 145.528 23.4915 146.311 22.8799C147.094 22.2682 147.485 21.363 147.485 20.1641C147.485 18.9653 147.094 18.0723 146.311 17.4851C145.528 16.8734 144.39 16.5676 142.898 16.5676H137.87V23.7974ZM177.844 38.4037C175.765 38.4037 173.82 38.1468 172.009 37.633C170.199 37.1192 168.657 36.4097 167.385 35.5044L169.073 31.0271C169.905 31.5899 170.786 32.0669 171.715 32.4584C172.645 32.8499 173.624 33.1557 174.651 33.3759C175.679 33.5716 176.755 33.6695 177.881 33.6695C179.642 33.6695 180.89 33.4004 181.624 32.8621C182.383 32.3238 182.762 31.6388 182.762 30.8069C182.762 30.0485 182.505 29.4735 181.991 29.0821C181.502 28.6661 180.597 28.3114 179.275 28.0178L174.945 27.137C172.572 26.6477 170.798 25.8158 169.624 24.6415C168.449 23.4671 167.862 21.9012 167.862 19.9439C167.862 18.2802 168.302 16.8367 169.183 15.6134C170.064 14.3901 171.3 13.4359 172.89 12.7509C174.505 12.0658 176.388 11.7233 178.542 11.7233C180.376 11.7233 182.089 11.9802 183.679 12.494C185.27 13.0078 186.579 13.7418 187.606 14.6959L185.918 18.8797C184.915 18.0723 183.79 17.4729 182.542 17.0814C181.318 16.6655 179.948 16.4575 178.431 16.4575C176.841 16.4575 175.618 16.7389 174.761 17.3016C173.93 17.8643 173.514 18.635 173.514 19.6136C173.514 20.3476 173.771 20.9471 174.284 21.4119C174.798 21.8523 175.703 22.2071 177 22.4762L181.257 23.3203C183.679 23.8096 185.478 24.6292 186.652 25.7791C187.826 26.929 188.414 28.4582 188.414 30.3665C188.414 31.9813 187.973 33.3881 187.092 34.587C186.236 35.7858 185.013 36.7278 183.423 37.4128C181.857 38.0734 179.997 38.4037 177.844 38.4037ZM192.641 38V12.127H198.367V38H192.641ZM209.59 38V16.7878H201.37V12.127H223.536V16.7878H215.315V38H209.59ZM226.653 38V12.127H244.636V16.5676H232.121V22.623H243.755V27.1003H232.121V33.5594H244.636V38H226.653Z" fill="url(#paint0_linear_1_7363)"/>
<path opacity="0.4" d="M0 40.6311L36.0783 40.6471L33.5266 36.5777H2.38121L0 40.6311Z" fill="url(#paint1_linear_1_7363)"/>
<path opacity="0.4" d="M34.4769 42.4961L1.60785 42.4961C0.720318 42.4961 7.62939e-06 41.7758 7.62939e-06 40.8883V40.6471L36.0847 40.6471V40.8883C36.0847 41.7758 35.3644 42.4961 34.4769 42.4961Z" fill="url(#paint2_linear_1_7363)"/>
<path opacity="0.4" d="M2.52588 15.1854V34.8155C2.52588 35.4217 3.01788 35.9137 3.62403 35.9137H32.459C33.0652 35.9137 33.5572 35.4217 33.5572 34.8155V34.018H7.00853C6.43936 34.018 5.9763 33.592 5.9763 33.0694V16.1308C5.9763 15.6067 6.43936 15.1822 7.00853 15.1822H33.5604C33.5588 14.5777 33.0668 14.0873 32.4622 14.0873H3.62564C3.01949 14.0873 2.52749 14.5793 2.52749 15.1854H2.52588Z" fill="url(#paint3_linear_1_7363)"/>
<path d="M6.11146 14.0873H8.69204C8.83353 14.4523 8.97341 14.8172 9.11329 15.1822H7.00863C6.43946 15.1822 5.9764 15.6083 5.9764 16.1308V33.0694C5.9764 33.5936 6.43946 34.018 7.00863 34.018H34.0476C34.6168 34.018 35.0799 33.592 35.0799 33.0694V16.1308C35.0799 15.6067 34.6168 15.1822 34.0476 15.1822H12.6891C12.5509 14.8221 12.4254 14.4555 12.3097 14.0873H34.9448C35.551 14.0873 36.043 14.5793 36.043 15.1854V34.8155C36.043 35.4217 35.551 35.9137 34.9448 35.9137H6.11146C5.5053 35.9137 5.01331 35.4217 5.01331 34.8155V15.1854C5.01331 14.5793 5.5053 14.0873 6.11146 14.0873Z" fill="url(#paint4_linear_1_7363)"/>
<path d="M21.5354 34.6579H19.5191C19.3859 34.6579 19.278 34.7659 19.278 34.8991V34.9714C19.278 35.1046 19.3859 35.2126 19.5191 35.2126H21.5354C21.6686 35.2126 21.7765 35.1046 21.7765 34.9714V34.8991C21.7765 34.7659 21.6686 34.6579 21.5354 34.6579Z" fill="white"/>
<path d="M2.49219 40.6616H38.5624L36.0124 36.5922H4.86696L2.49219 40.6616Z" fill="url(#paint5_linear_1_7363)"/>
<path d="M36.9626 42.4961L4.09356 42.4961C3.20604 42.4961 2.48573 41.7758 2.48573 40.8883V40.6471L38.5704 40.6471V40.8883C38.5704 41.7758 37.8501 42.4961 36.9626 42.4961Z" fill="url(#paint6_linear_1_7363)"/>
<path d="M28.0681 41.6954H12.9882C12.4705 41.6954 12.0508 41.2758 12.0508 40.7581V40.6166H29.0071V40.7581C29.0071 41.2758 28.5874 41.6954 28.0697 41.6954H28.0681Z" fill="white"/>
<path d="M21.2733 29.4597C11.9092 20.0314 6.4828 10.2396 9.15181 7.5883C11.2066 5.54795 16.4643 8.03367 19.6783 13.6129C19.6783 13.6129 13.8772 6.93551 10.6165 8.52888C7.01177 10.2911 19.3278 28.1027 21.2717 29.4597" fill="url(#paint7_linear_1_7363)"/>
<path d="M21.1366 28.6237C21.5289 28.9034 21.926 29.1816 22.3296 29.4581C22.0852 29.3488 21.672 29.0562 21.1366 28.6237Z" fill="url(#paint8_linear_1_7363)"/>
<path d="M13.7615 24.5993C13.7615 27.979 16.5012 30.7187 19.8809 30.7187C23.2606 30.7187 26.0003 27.979 26.0003 24.5993C26.0003 21.2196 23.2606 18.4799 19.8809 18.4799C16.5012 18.4799 13.7615 21.2196 13.7615 24.5993Z" fill="url(#paint9_linear_1_7363)"/>
<path style="mix-blend-mode:multiply" opacity="0.3" d="M26.0002 24.5993C26.0002 27.9789 23.2605 30.7187 19.8808 30.7187C16.5011 30.7187 13.7614 27.9789 13.7614 24.5993C13.7614 24.4513 13.7662 24.3034 13.7774 24.1571C14.0041 27.3294 16.6506 29.8328 19.8808 29.8328C23.1109 29.8328 25.7574 27.3294 25.9841 24.1571C25.9954 24.3034 26.0002 24.4513 26.0002 24.5993Z" fill="url(#paint10_linear_1_7363)"/>
<path d="M15.5638 24.5993C15.5638 26.9837 17.4965 28.9147 19.8793 28.9147C22.2621 28.9147 24.1947 26.9821 24.1947 24.5993C24.1947 22.2164 22.2621 20.2838 19.8793 20.2838C17.4965 20.2838 15.5638 22.2164 15.5638 24.5993Z" fill="white"/>
<path d="M17.08 24.5993C17.08 26.1461 18.3341 27.4002 19.8808 27.4002C21.4275 27.4002 22.6817 26.1461 22.6817 24.5993C22.6817 23.0526 21.4275 21.7985 19.8808 21.7985C18.3341 21.7985 17.08 23.0526 17.08 24.5993Z" fill="url(#paint11_linear_1_7363)"/>
<path opacity="0.3" d="M17.6781 24.8147C17.6781 26.0302 18.6637 27.0174 19.8808 27.0174C21.098 27.0174 22.0836 26.0318 22.0836 24.8147C22.0836 24.6008 22.053 24.3934 21.9951 24.1973C21.7282 25.1137 20.8825 25.7826 19.8808 25.7826C18.8792 25.7826 18.0334 25.1137 17.7665 24.1973C17.7086 24.3934 17.6781 24.5992 17.6781 24.8147Z" fill="white"/>
<path d="M18.0431 23.3709C18.0431 23.8275 18.4129 24.1973 18.8695 24.1973C19.3261 24.1973 19.6959 23.8275 19.6959 23.3709C19.6959 22.9142 19.3261 22.5444 18.8695 22.5444C18.4129 22.5444 18.0431 22.9142 18.0431 23.3709Z" fill="white"/>
<mask id="mask0_1_7363" style="mask-type:luminance" maskUnits="userSpaceOnUse" x="2" y="36" width="37" height="5">
<path d="M2.49219 40.6616H38.5624L36.0124 36.5922H4.86696L2.49219 40.6616Z" fill="white"/>
</mask>
<g mask="url(#mask0_1_7363)">
<path opacity="0.1" d="M24.2397 40.6616H25.7929L21.1511 35.9603H19.5979L24.2397 40.6616Z" fill="white"/>
<path opacity="0.1" d="M21.0273 40.6616H22.5821L17.9403 35.9603H16.3871L21.0273 40.6616Z" fill="white"/>
<path opacity="0.1" d="M17.8164 40.6616H19.3711L14.7293 35.9603H13.1761L17.8164 40.6616Z" fill="white"/>
</g>
<path d="M42.9741 34.6353L44.3151 36.748C45.0981 37.9829 44.7315 39.618 43.4983 40.401C42.2635 41.1841 40.6283 40.8191 39.8453 39.5843L38.5044 37.4716C37.85 36.4409 37.9979 35.1306 38.7825 34.2704L40.035 36.2448C40.0431 36.2576 40.0511 36.2689 40.0591 36.2818C40.0656 36.2898 40.0704 36.2962 40.0752 36.3043C40.1025 36.338 40.1315 36.3686 40.1636 36.3975C40.1717 36.404 40.1781 36.4104 40.1862 36.4168C40.191 36.42 40.1942 36.4233 40.199 36.4265C40.2071 36.4329 40.2167 36.4409 40.2263 36.4474C40.363 36.5422 40.5318 36.584 40.6958 36.568C40.7055 36.568 40.7135 36.5663 40.7232 36.5647C40.7457 36.5615 40.7682 36.5567 40.7907 36.5519C40.8116 36.5471 40.8325 36.5406 40.8518 36.5342C40.8631 36.5294 40.8743 36.5262 40.8856 36.5213C40.8952 36.5181 40.9049 36.5133 40.9145 36.5085C40.9242 36.5053 40.9354 36.4988 40.9451 36.494L41.0463 36.4297C41.0544 36.4233 41.064 36.4168 41.0721 36.4088C41.0801 36.4023 41.0882 36.3943 41.0962 36.3879C41.1058 36.3798 41.1139 36.3718 41.1219 36.3638C41.1364 36.3477 41.1509 36.3332 41.1637 36.3155C41.1782 36.2978 41.1927 36.2785 41.2055 36.2593C41.2103 36.2512 41.2152 36.2448 41.22 36.2367C41.3068 36.0953 41.339 35.9248 41.3116 35.7608C41.31 35.7496 41.3084 35.7383 41.3052 35.7271C41.3052 35.7222 41.3036 35.7174 41.302 35.711C41.2988 35.7013 41.2972 35.6933 41.294 35.6836C41.2827 35.6435 41.2666 35.6033 41.2473 35.5647C41.2425 35.5566 41.2393 35.5486 41.2345 35.5405C41.228 35.5277 41.22 35.5148 41.212 35.502L39.9594 33.5275C40.4048 33.3893 40.8743 33.3764 41.3165 33.4745C41.9773 33.6224 42.5818 34.0227 42.9741 34.6402V34.6353Z" fill="url(#paint12_linear_1_7363)"/>
<path style="mix-blend-mode:multiply" opacity="0.4" d="M43.4968 40.401C42.2635 41.1856 40.6268 40.819 39.8437 39.5842L38.5028 37.4715C38.1169 36.8637 38.0108 36.1579 38.1491 35.5051C38.2134 35.8026 38.3308 36.0952 38.5028 36.3669L39.8437 38.4796C40.6268 39.7128 42.2635 40.0794 43.4968 39.2964C44.1238 38.8993 44.5258 38.2819 44.6689 37.6082C44.894 38.6613 44.4598 39.79 43.4968 40.401Z" fill="url(#paint13_linear_1_7363)"/>
<path d="M39.655 34.3313L39.7148 34.2935C39.8249 34.2239 39.9699 34.2577 40.0387 34.3664L40.6172 35.2808C40.6869 35.3909 40.6531 35.5359 40.5444 35.6047L40.4846 35.6425C40.3745 35.7122 40.2295 35.6784 40.1607 35.5697L39.5822 34.6552C39.5125 34.5452 39.5463 34.4001 39.655 34.3313Z" fill="url(#paint14_linear_1_7363)"/>
<g opacity="0.4">
<path d="M34.0781 30.7186H31.5345V33.2622H34.0781V30.7186Z" fill="url(#paint15_linear_1_7363)"/>
<path d="M31.5329 28.9469H29.7611V30.7203H31.5329V28.9469Z" fill="url(#paint16_linear_1_7363)"/>
<path d="M33.0813 27.4001H31.7612V28.7202H33.0813V27.4001Z" fill="url(#paint17_linear_1_7363)"/>
<path d="M30.422 26.0801H29.1019V27.4001H30.422V26.0801Z" fill="url(#paint18_linear_1_7363)"/>
</g>
<defs>
<linearGradient id="paint0_linear_1_7363" x1="50.4615" y1="24.5" x2="246.462" y2="24.5" gradientUnits="userSpaceOnUse">
<stop stop-color="#891CF1"/>
<stop offset="1" stop-color="#1ECCFF"/>
</linearGradient>
<linearGradient id="paint1_linear_1_7363" x1="18.3422" y1="46.1877" x2="17.5415" y2="31.5436" gradientUnits="userSpaceOnUse">
<stop stop-color="#1ECCFF"/>
<stop offset="0.54" stop-color="#6855FF"/>
<stop offset="1" stop-color="#891CF1"/>
</linearGradient>
<linearGradient id="paint2_linear_1_7363" x1="32.9961" y1="41.697" x2="-1.84258" y2="41.3883" gradientUnits="userSpaceOnUse">
<stop stop-color="#1ECCFF"/>
<stop offset="0.54" stop-color="#6855FF"/>
<stop offset="1" stop-color="#891CF1"/>
</linearGradient>
<linearGradient id="paint3_linear_1_7363" x1="-1.04513" y1="11.5115" x2="36.7953" y2="38.2531" gradientUnits="userSpaceOnUse">
<stop stop-color="#1ECCFF"/>
<stop offset="0.54" stop-color="#6855FF"/>
<stop offset="1" stop-color="#891CF1"/>
</linearGradient>
<linearGradient id="paint4_linear_1_7363" x1="1.4423" y1="11.5131" x2="39.2796" y2="38.2531" gradientUnits="userSpaceOnUse">
<stop stop-color="#1ECCFF"/>
<stop offset="0.54" stop-color="#6855FF"/>
<stop offset="1" stop-color="#891CF1"/>
</linearGradient>
<linearGradient id="paint5_linear_1_7363" x1="20.8312" y1="46.2038" x2="20.0305" y2="31.5596" gradientUnits="userSpaceOnUse">
<stop stop-color="#1ECCFF"/>
<stop offset="0.54" stop-color="#6855FF"/>
<stop offset="1" stop-color="#891CF1"/>
</linearGradient>
<linearGradient id="paint6_linear_1_7363" x1="35.4818" y1="41.697" x2="0.643141" y2="41.3883" gradientUnits="userSpaceOnUse">
<stop stop-color="#1ECCFF"/>
<stop offset="0.54" stop-color="#6855FF"/>
<stop offset="1" stop-color="#891CF1"/>
</linearGradient>
<linearGradient id="paint7_linear_1_7363" x1="25.034" y1="25.7231" x2="8.08099" y2="8.65268" gradientUnits="userSpaceOnUse">
<stop stop-color="#1ECCFF"/>
<stop offset="0.54" stop-color="#6855FF"/>
<stop offset="1" stop-color="#891CF1"/>
</linearGradient>
<linearGradient id="paint8_linear_1_7363" x1="22.3263" y1="29.469" x2="2.49145" y2="15.8534" gradientUnits="userSpaceOnUse">
<stop stop-color="#1ECCFF"/>
<stop offset="0.54" stop-color="#6855FF"/>
<stop offset="1" stop-color="#891CF1"/>
</linearGradient>
<linearGradient id="paint9_linear_1_7363" x1="17.5286" y1="18.9493" x2="22.2332" y2="30.2508" gradientUnits="userSpaceOnUse">
<stop stop-color="#1ECCFF"/>
<stop offset="0.54" stop-color="#6855FF"/>
<stop offset="1" stop-color="#891CF1"/>
</linearGradient>
<linearGradient id="paint10_linear_1_7363" x1="21.0851" y1="22.1184" x2="17.6748" y2="30.3103" gradientUnits="userSpaceOnUse">
<stop stop-color="#1ECCFF"/>
<stop offset="0.54" stop-color="#6855FF"/>
<stop offset="1" stop-color="#891CF1"/>
</linearGradient>
<linearGradient id="paint11_linear_1_7363" x1="18.8036" y1="22.0139" x2="20.9565" y2="27.1863" gradientUnits="userSpaceOnUse">
<stop stop-color="#1ECCFF"/>
<stop offset="0.54" stop-color="#6855FF"/>
<stop offset="1" stop-color="#891CF1"/>
</linearGradient>
<linearGradient id="paint12_linear_1_7363" x1="39.3762" y1="33.6365" x2="43.227" y2="40.217" gradientUnits="userSpaceOnUse">
<stop stop-color="#1ECCFF"/>
<stop offset="0.54" stop-color="#6855FF"/>
<stop offset="1" stop-color="#891CF1"/>
</linearGradient>
<linearGradient id="paint13_linear_1_7363" x1="41.4677" y1="35.4923" x2="41.2844" y2="40.5875" gradientUnits="userSpaceOnUse">
<stop stop-color="#1ECCFF"/>
<stop offset="0.54" stop-color="#6855FF"/>
<stop offset="1" stop-color="#891CF1"/>
</linearGradient>
<linearGradient id="paint14_linear_1_7363" x1="39.3093" y1="33.6116" x2="43.1519" y2="40.1821" gradientUnits="userSpaceOnUse">
<stop stop-color="#1ECCFF"/>
<stop offset="0.54" stop-color="#6855FF"/>
<stop offset="1" stop-color="#891CF1"/>
</linearGradient>
<linearGradient id="paint15_linear_1_7363" x1="36.5896" y1="36.5679" x2="27.9265" y2="26.0865" gradientUnits="userSpaceOnUse">
<stop stop-color="#1ECCFF"/>
<stop offset="0.54" stop-color="#6855FF"/>
<stop offset="1" stop-color="#891CF1"/>
</linearGradient>
<linearGradient id="paint16_linear_1_7363" x1="36.3661" y1="36.753" x2="27.7047" y2="26.2715" gradientUnits="userSpaceOnUse">
<stop stop-color="#1ECCFF"/>
<stop offset="0.54" stop-color="#6855FF"/>
<stop offset="1" stop-color="#891CF1"/>
</linearGradient>
<linearGradient id="paint17_linear_1_7363" x1="36.6796" y1="33.2141" x2="30.2274" y2="25.408" gradientUnits="userSpaceOnUse">
<stop stop-color="#1ECCFF"/>
<stop offset="0.54" stop-color="#6855FF"/>
<stop offset="1" stop-color="#891CF1"/>
</linearGradient>
<linearGradient id="paint18_linear_1_7363" x1="34.0203" y1="31.894" x2="27.5697" y2="24.0864" gradientUnits="userSpaceOnUse">
<stop stop-color="#1ECCFF"/>
<stop offset="0.54" stop-color="#6855FF"/>
<stop offset="1" stop-color="#891CF1"/>
</linearGradient>
</defs>
</svg>
